<?xml version="1.0" encoding="UTF-8" standalone="no"?>
<svg width="200px" height="60px" viewBox="0 0 200 60" version="1.1" xmlns="http://www.w3.org/2000/svg" xmlns:xlink="http://www.w3.org/1999/xlink" xmlns:sketch="http://www.bohemiancoding.com/sketch/ns">
    <!-- Generator: Sketch 3.0.4 (8053) - http://www.bohemiancoding.com/sketch -->
    <title>btn_android</title>
    <desc>Created with Sketch.</desc>
    <defs></defs>
    <g id="Simple" stroke="none" stroke-width="1" fill="none" fill-rule="evenodd" sketch:type="MSPage">
        <g id="Download-Buttons" sketch:type="MSArtboardGroup" transform="translate(-50.000000, -120.000000)" fill="#7F7F7F">
            <g id="btn_android" sketch:type="MSLayerGroup" transform="translate(50.000000, 120.000000)">
                <path d="M0,7.99854961 L0,52.0014504 C0,56.4189274 3.57762838,60 7.99464702,60 L192.005353,60 C196.420675,60 200,56.4264107 200,52.0014504 L200,7.99854961 C200,3.58107264 196.422372,0 192.005353,0 L7.99464702,0 C3.57932539,0 0,3.57358932 0,7.99854961 Z M192.005353,1 C195.869359,1 199,4.13262889 199,7.99854961 L199,52.0014504 C199,55.8715059 195.87101,59 192.005353,59 L7.99464702,59 C4.13064135,59 1,55.8673711 1,52.0014504 L1,7.99854961 C1,4.12849407 4.12898974,1 7.99464702,1 L192.005353,1 Z" id="Btn_bg" sketch:type="MSShapeGroup"></path>
                <path d="M41.9884722,13.3553072 L42.4337048,12.7001072 L42.8707978,12.0537072 L43.8548676,10.6033072 C43.9753327,10.4249072 43.9264955,10.1849072 43.7466118,10.0657072 C43.5634722,9.94650721 43.3192862,9.99450721 43.1980071,10.1737072 L42.1439374,11.7289072 L41.7003327,12.3825072 L41.2502164,13.0449072 C39.8241699,12.5017072 38.2345188,12.1969072 36.5553327,12.1969072 C34.8777746,12.1969072 33.2881234,12.5017072 31.8620769,13.0449072 L31.4144025,12.3825072 L30.9707978,11.7289072 L29.9151002,10.1729072 C29.794635,9.99450721 29.549635,9.94650721 29.3673095,10.0649072 C29.1866118,10.1833072 29.1377746,10.4241072 29.2582397,10.6025072 L30.2414955,12.0529072 L30.6802164,12.6993072 L31.125449,13.3545072 C27.7760304,14.8873072 25.5107978,17.7913072 25.5107978,21.1153072 L47.6031234,21.1153072 C47.6031234,17.7921072 45.3378909,14.8881072 41.9884722,13.3553072 L41.9884722,13.3553072 Z M31.8230071,18.0137072 C31.1677746,18.0137072 30.6387048,17.4929072 30.6387048,16.8505072 C30.6387048,16.2081072 31.1677746,15.6881072 31.8230071,15.6881072 C32.4766118,15.6881072 33.0056815,16.2081072 33.0056815,16.8505072 C33.0056815,17.4929072 32.4766118,18.0137072 31.8230071,18.0137072 L31.8230071,18.0137072 Z M41.2901002,18.0137072 C40.6364955,18.0137072 40.1074257,17.4929072 40.1074257,16.8505072 C40.1074257,16.2081072 40.6364955,15.6881072 41.2901002,15.6881072 C41.9453327,15.6881072 42.4744025,16.2081072 42.4744025,16.8505072 C42.4744025,17.4929072 41.9453327,18.0137072 41.2901002,18.0137072 L41.2901002,18.0137072 Z M25.6809141,22.6673072 L25.5107978,22.6673072 L25.5107978,24.6017072 L25.5107978,26.1801072 L25.5107978,39.7289072 C25.5107978,41.0833072 26.6307978,42.1849072 28.0088211,42.1849072 L29.812542,42.1849072 C29.7523095,42.3897072 29.7181234,42.6065072 29.7181234,42.8305072 L29.7181234,42.9601072 L29.7181234,43.7353072 L29.7181234,47.7433072 C29.7181234,49.0273072 30.7787048,50.0697072 32.0859141,50.0697072 C33.3931234,50.0697072 34.4528909,49.0273072 34.4528909,47.7433072 L34.4528909,43.7353072 L34.4528909,42.9601072 L34.4528909,42.8305072 C34.4528909,42.6073072 34.4178909,42.3897072 34.3592862,42.1849072 L38.754635,42.1849072 C38.6944025,42.3897072 38.6610304,42.6065072 38.6610304,42.8305072 L38.6610304,42.9601072 L38.6610304,43.7353072 L38.6610304,47.7433072 C38.6610304,49.0273072 39.7216118,50.0697072 41.0280071,50.0697072 C42.3344025,50.0697072 43.3949839,49.0273072 43.3949839,47.7433072 L43.3949839,43.7353072 L43.3949839,42.9601072 L43.3949839,42.8305072 C43.3949839,42.6073072 43.3616118,42.3897072 43.3013792,42.1849072 L45.1042862,42.1849072 C46.4823095,42.1849072 47.6031234,41.0833072 47.6031234,39.7289072 L47.6031234,26.1801072 L47.6031234,24.6017072 L47.6031234,22.6673072 L47.4330071,22.6673072 L25.6809141,22.6673072 L25.6809141,22.6673072 Z M21.5647513,22.6673072 C20.257542,22.6673072 19.1977746,23.7081072 19.1977746,24.9945072 L19.1977746,34.9457072 C19.1977746,36.2297072 20.257542,37.2721072 21.5647513,37.2721072 C22.8711467,37.2721072 23.9317281,36.2297072 23.9317281,34.9457072 L23.9317281,24.9937072 C23.9317281,23.7081072 22.8719606,22.6673072 21.5647513,22.6673072 L21.5647513,22.6673072 Z M51.5491699,22.6673072 C50.2411467,22.6673072 49.1821932,23.7081072 49.1821932,24.9945072 L49.1821932,34.9457072 C49.1821932,36.2297072 50.2411467,37.2721072 51.5491699,37.2721072 C52.8555653,37.2721072 53.9145188,36.2297072 53.9145188,34.9457072 L53.9145188,24.9937072 C53.9145188,23.7081072 52.8555653,22.6673072 51.5491699,22.6673072 L51.5491699,22.6673072 Z" id="Android" sketch:type="MSShapeGroup"></path>
                <path d="M76.3447266,23.3583984 L70.2861328,23.3583984 L69.0185547,27 L66.1933594,27 L72.1015625,11.359375 L74.5400391,11.359375 L80.4589844,27 L77.6230469,27 L76.3447266,23.3583984 Z M71.0488281,21.1669922 L75.5820312,21.1669922 L73.3154297,14.6787109 L71.0488281,21.1669922 Z M83.8857422,15.3769531 L83.9609375,16.7197266 C84.3691427,16.2255835 84.8596977,15.8424493 85.4326172,15.5703125 C86.0055367,15.2981757 86.6429001,15.1621094 87.3447266,15.1621094 C87.9033231,15.1621094 88.4099912,15.2390943 88.8647461,15.3930664 C89.319501,15.5470385 89.7080062,15.7958967 90.0302734,16.1396484 C90.3525407,16.4834002 90.6013989,16.9309868 90.7768555,17.4824219 C90.9523121,18.0338569 91.0400391,18.7034466 91.0400391,19.4912109 L91.0400391,27 L88.4296875,27 L88.4296875,19.4697266 C88.4296875,19.0686829 88.3849288,18.7303074 88.2954102,18.4545898 C88.2058915,18.1788723 88.0751962,17.955079 87.9033203,17.7832031 C87.7314445,17.6113273 87.5183932,17.4877933 87.2641602,17.4125977 C87.0099271,17.337402 86.7181006,17.2998047 86.3886719,17.2998047 C85.8515598,17.2998047 85.3842793,17.4287096 84.9868164,17.6865234 C84.5893535,17.9443372 84.2724621,18.2916645 84.0361328,18.7285156 L84.0361328,27 L81.4257812,27 L81.4257812,15.3769531 L83.8857422,15.3769531 Z M93.2099609,21.1025391 C93.2099609,20.2216753 93.3155914,19.4160193 93.5268555,18.6855469 C93.7381195,17.9550745 94.0424785,17.3284531 94.4399414,16.8056641 C94.8374043,16.282875 95.3190076,15.8782566 95.8847656,15.5917969 C96.4505237,15.3053371 97.0878871,15.1621094 97.796875,15.1621094 C98.4414095,15.1621094 99.0089494,15.2731109 99.4995117,15.4951172 C99.9900741,15.7171235 100.417967,16.0358052 100.783203,16.4511719 L100.783203,10.5 L103.393555,10.5 L103.393555,27 L101.030273,27 L100.901367,25.796875 C100.528969,26.2480491 100.086754,26.5971667 99.574707,26.8442383 C99.0626602,27.0913098 98.4628941,27.2148438 97.7753906,27.2148438 C97.0735642,27.2148438 96.4415718,27.066245 95.8793945,26.769043 C95.3172172,26.471841 94.8391947,26.0618516 94.4453125,25.5390625 C94.0514303,25.0162734 93.7470714,24.3950231 93.5322266,23.675293 C93.3173817,22.9555628 93.2099609,22.1731813 93.2099609,21.328125 L93.2099609,21.1025391 Z M95.8203125,21.328125 C95.8203125,21.8437526 95.8686519,22.3289365 95.965332,22.7836914 C96.0620122,23.2384463 96.215982,23.6376936 96.4272461,23.9814453 C96.6385102,24.325197 96.9088525,24.5955394 97.2382812,24.7924805 C97.56771,24.9894216 97.9687476,25.0878906 98.4414062,25.0878906 C99.0286488,25.0878906 99.510252,24.9571953 99.8862305,24.6958008 C100.262209,24.4344062 100.561197,24.0888693 100.783203,23.6591797 L100.783203,18.6962891 C100.561197,18.2665994 100.260419,17.9264335 99.8808594,17.6757812 C99.5013002,17.425129 99.0286487,17.2998047 98.4628906,17.2998047 C97.990232,17.2998047 97.587404,17.4000641 97.2543945,17.6005859 C96.9213851,17.8011078 96.6492524,18.0732405 96.4379883,18.4169922 C96.2267242,18.7607439 96.070964,19.1635719 95.9707031,19.6254883 C95.8704422,20.0874047 95.8203125,20.57975 95.8203125,21.1025391 L95.8203125,21.328125 Z M112.202148,17.7617188 C112.030273,17.7330728 111.856609,17.7115886 111.681152,17.6972656 C111.505696,17.6829426 111.324871,17.6757812 111.138672,17.6757812 C110.50846,17.6757812 109.996421,17.7975248 109.602539,18.0410156 C109.208657,18.2845064 108.91504,18.6210916 108.72168,19.0507812 L108.72168,27 L106.111328,27 L106.111328,15.3769531 L108.603516,15.3769531 L108.667969,16.6767578 C108.96159,16.2040992 109.32503,15.8334974 109.758301,15.5649414 C110.191571,15.2963854 110.70182,15.1621094 111.289062,15.1621094 C111.439454,15.1621094 111.609537,15.1782225 111.799316,15.2104492 C111.989096,15.2426759 112.126953,15.2766925 112.212891,15.3125 L112.202148,17.7617188 Z M112.975586,21.0810547 C112.975586,20.2359984 113.09912,19.4536169 113.346191,18.7338867 C113.593263,18.0141566 113.947752,17.3893256 114.409668,16.859375 C114.871584,16.3294244 115.435544,15.914064 116.101562,15.6132812 C116.767581,15.3124985 117.523108,15.1621094 118.368164,15.1621094 C119.220382,15.1621094 119.98307,15.3124985 120.65625,15.6132812 C121.32943,15.914064 121.89697,16.3294244 122.358887,16.859375 C122.820803,17.3893256 123.173501,18.0141566 123.416992,18.7338867 C123.660483,19.4536169 123.782227,20.2359984 123.782227,21.0810547 L123.782227,21.3066406 C123.782227,22.1516969 123.660483,22.9358688 123.416992,23.6591797 C123.173501,24.3824906 122.820803,25.0073216 122.358887,25.5336914 C121.89697,26.0600612 121.331221,26.471841 120.661621,26.769043 C119.992021,27.066245 119.234705,27.2148438 118.389648,27.2148438 C117.537431,27.2148438 116.776533,27.066245 116.106934,26.769043 C115.437334,26.471841 114.871584,26.0600612 114.409668,25.5336914 C113.947752,25.0073216 113.593263,24.3824906 113.346191,23.6591797 C113.09912,22.9358688 112.975586,22.1516969 112.975586,21.3066406 L112.975586,21.0810547 Z M115.585938,21.3066406 C115.585938,21.8294297 115.639648,22.3235654 115.74707,22.7890625 C115.854493,23.2545596 116.022785,23.6609683 116.251953,24.0083008 C116.481121,24.3556332 116.772947,24.6295563 117.127441,24.8300781 C117.481935,25.0306 117.902667,25.1308594 118.389648,25.1308594 C118.869469,25.1308594 119.286619,25.0306 119.641113,24.8300781 C119.995607,24.6295563 120.285643,24.3556332 120.51123,24.0083008 C120.736818,23.6609683 120.90511,23.2545596 121.016113,22.7890625 C121.127116,22.3235654 121.182617,21.8294297 121.182617,21.3066406 L121.182617,21.0810547 C121.182617,20.5654271 121.127116,20.0766625 121.016113,19.6147461 C120.90511,19.1528297 120.735027,18.7482114 120.505859,18.4008789 C120.276692,18.0535464 119.984865,17.7760427 119.630371,17.5683594 C119.275877,17.360676 118.855146,17.2568359 118.368164,17.2568359 C117.881182,17.2568359 117.464032,17.360676 117.116699,17.5683594 C116.769367,17.7760427 116.481121,18.0535464 116.251953,18.4008789 C116.022785,18.7482114 115.854493,19.1528297 115.74707,19.6147461 C115.639648,20.0766625 115.585938,20.5654271 115.585938,21.0810547 L115.585938,21.3066406 Z M128.766602,27 L126.15625,27 L126.15625,15.3769531 L128.766602,15.3769531 L128.766602,27 Z M125.995117,12.3583984 C125.995117,11.9573548 126.122232,11.6243503 126.376465,11.359375 C126.630698,11.0943997 126.994138,10.9619141 127.466797,10.9619141 C127.939455,10.9619141 128.304686,11.0943997 128.5625,11.359375 C128.820314,11.6243503 128.949219,11.9573548 128.949219,12.3583984 C128.949219,12.7522806 128.820314,13.0799141 128.5625,13.3413086 C128.304686,13.6027031 127.939455,13.7333984 127.466797,13.7333984 C126.994138,13.7333984 126.630698,13.6027031 126.376465,13.3413086 C126.122232,13.0799141 125.995117,12.7522806 125.995117,12.3583984 Z M131.119141,21.1025391 C131.119141,20.2216753 131.224771,19.4160193 131.436035,18.6855469 C131.647299,17.9550745 131.951658,17.3284531 132.349121,16.8056641 C132.746584,16.282875 133.228187,15.8782566 133.793945,15.5917969 C134.359703,15.3053371 134.997067,15.1621094 135.706055,15.1621094 C136.350589,15.1621094 136.918129,15.2731109 137.408691,15.4951172 C137.899254,15.7171235 138.327147,16.0358052 138.692383,16.4511719 L138.692383,10.5 L141.302734,10.5 L141.302734,27 L138.939453,27 L138.810547,25.796875 C138.438149,26.2480491 137.995934,26.5971667 137.483887,26.8442383 C136.97184,27.0913098 136.372074,27.2148438 135.68457,27.2148438 C134.982744,27.2148438 134.350752,27.066245 133.788574,26.769043 C133.226397,26.471841 132.748374,26.0618516 132.354492,25.5390625 C131.96061,25.0162734 131.656251,24.3950231 131.441406,23.675293 C131.226561,22.9555628 131.119141,22.1731813 131.119141,21.328125 L131.119141,21.1025391 Z M133.729492,21.328125 C133.729492,21.8437526 133.777832,22.3289365 133.874512,22.7836914 C133.971192,23.2384463 134.125162,23.6376936 134.336426,23.9814453 C134.54769,24.325197 134.818032,24.5955394 135.147461,24.7924805 C135.47689,24.9894216 135.877927,25.0878906 136.350586,25.0878906 C136.937828,25.0878906 137.419432,24.9571953 137.79541,24.6958008 C138.171389,24.4344062 138.470376,24.0888693 138.692383,23.6591797 L138.692383,18.6962891 C138.470376,18.2665994 138.169598,17.9264335 137.790039,17.6757812 C137.41048,17.425129 136.937828,17.2998047 136.37207,17.2998047 C135.899412,17.2998047 135.496584,17.4000641 135.163574,17.6005859 C134.830565,17.8011078 134.558432,18.0732405 134.347168,18.4169922 C134.135904,18.7607439 133.980144,19.1635719 133.879883,19.6254883 C133.779622,20.0874047 133.729492,20.57975 133.729492,21.1025391 L133.729492,21.328125 Z M156.328125,27 C156.263021,26.8177074 156.212565,26.5947279 156.176758,26.3310547 C156.14095,26.0673815 156.116537,25.7988295 156.103516,25.5253906 C155.927733,25.7532563 155.719402,25.9680979 155.478516,26.1699219 C155.237629,26.3717458 154.967449,26.5475253 154.667969,26.6972656 C154.368488,26.847006 154.039715,26.9674475 153.681641,27.0585938 C153.323566,27.14974 152.9362,27.1953125 152.519531,27.1953125 C152.005206,27.1953125 151.538088,27.1204435 151.118164,26.9707031 C150.69824,26.8209628 150.340171,26.611004 150.043945,26.3408203 C149.74772,26.0706367 149.51823,25.753257 149.355469,25.3886719 C149.192708,25.0240867 149.111328,24.6269553 149.111328,24.1972656 C149.111328,23.6829401 149.222004,23.2190776 149.443359,22.8056641 C149.664715,22.3922505 149.983722,22.0406916 150.400391,21.7509766 C150.817059,21.4612616 151.323239,21.2399096 151.918945,21.0869141 C152.514651,20.9339185 153.18359,20.8574219 153.925781,20.8574219 L156.09375,20.8574219 L156.09375,19.65625 C156.09375,18.9010379 155.861005,18.3069683 155.395508,17.8740234 C154.930011,17.4410786 154.251307,17.2246094 153.359375,17.2246094 C152.949217,17.2246094 152.571616,17.2799474 152.226562,17.390625 C151.881509,17.5013026 151.58366,17.6542959 151.333008,17.8496094 C151.082356,18.0449229 150.887045,18.2711576 150.74707,18.5283203 C150.607096,18.7854831 150.537109,19.0605454 150.537109,19.3535156 L149.365234,19.34375 C149.365234,18.9466126 149.46289,18.5625019 149.658203,18.1914062 C149.853517,17.8203106 150.128579,17.4899103 150.483398,17.2001953 C150.838218,16.9104803 151.264646,16.6777353 151.762695,16.5019531 C152.260745,16.326171 152.812497,16.2382812 153.417969,16.2382812 C153.977867,16.2382812 154.493813,16.3098951 154.96582,16.453125 C155.437828,16.5963549 155.843097,16.8111965 156.181641,17.0976562 C156.520184,17.384116 156.783853,17.7421854 156.972656,18.171875 C157.161459,18.6015646 157.255859,19.1028617 157.255859,19.6757812 L157.255859,24.7929688 C157.255859,24.9752613 157.26237,25.1640615 157.275391,25.359375 C157.288412,25.5546885 157.30957,25.7434887 157.338867,25.9257812 C157.368164,26.1080738 157.402344,26.2822257 157.441406,26.4482422 C157.480469,26.6142586 157.526041,26.759114 157.578125,26.8828125 L157.578125,27 L156.328125,27 Z M152.65625,26.1601562 C153.079429,26.1601562 153.471678,26.1064458 153.833008,25.9990234 C154.194338,25.891601 154.521483,25.7434905 154.814453,25.5546875 C155.107423,25.3658845 155.361327,25.1461601 155.576172,24.8955078 C155.791017,24.6448555 155.963541,24.3730483 156.09375,24.0800781 L156.09375,21.7558594 L154.091797,21.7558594 C153.492836,21.7558594 152.957359,21.8095698 152.485352,21.9169922 C152.013344,22.0244146 151.614585,22.1790354 151.289062,22.3808594 C150.96354,22.5826833 150.714519,22.8284491 150.541992,23.1181641 C150.369465,23.4078791 150.283203,23.7350242 150.283203,24.0996094 C150.283203,24.3860691 150.338541,24.6546211 150.449219,24.9052734 C150.559896,25.1559257 150.717772,25.3740225 150.922852,25.5595703 C151.127931,25.7451181 151.376952,25.891601 151.669922,25.9990234 C151.962892,26.1064458 152.291665,26.1601562 152.65625,26.1601562 Z M168.867188,21.8242188 C168.867188,22.6184936 168.77767,23.3443978 168.598633,24.0019531 C168.419595,24.6595085 168.157554,25.2242815 167.8125,25.6962891 C167.467446,26.1682966 167.045901,26.5361315 166.547852,26.7998047 C166.049802,27.0634779 165.481774,27.1953125 164.84375,27.1953125 C164.088538,27.1953125 163.435875,27.0602227 162.885742,26.7900391 C162.335609,26.5198554 161.881512,26.1471378 161.523438,25.671875 L161.523438,31.0625 L160.361328,31.0625 L160.361328,16.4335938 L161.445312,16.4335938 L161.503906,17.9277344 C161.861981,17.400388 162.31445,16.9869807 162.861328,16.6875 C163.408206,16.3880193 164.059241,16.2382812 164.814453,16.2382812 C165.458988,16.2382812 166.033526,16.3652331 166.538086,16.6191406 C167.042646,16.8730481 167.467446,17.2343727 167.8125,17.703125 C168.157554,18.1718773 168.419595,18.7366503 168.598633,19.3974609 C168.77767,20.0582715 168.867188,20.798824 168.867188,21.6191406 L168.867188,21.8242188 Z M167.695312,21.6191406 C167.695312,21.0071584 167.631837,20.4342475 167.504883,19.9003906 C167.377929,19.3665338 167.185874,18.9042988 166.928711,18.5136719 C166.671548,18.1230449 166.344403,17.8154308 165.947266,17.5908203 C165.550128,17.3662098 165.084638,17.2539062 164.550781,17.2539062 C164.127602,17.2539062 163.753257,17.3092442 163.427734,17.4199219 C163.102212,17.5305995 162.817384,17.67871 162.573242,17.8642578 C162.3291,18.0498056 162.120769,18.2646472 161.948242,18.5087891 C161.775715,18.7529309 161.634115,19.0084622 161.523438,19.2753906 L161.523438,24.34375 C161.647136,24.6106784 161.801757,24.8580718 161.987305,25.0859375 C162.172852,25.3138032 162.390949,25.5107414 162.641602,25.6767578 C162.892254,25.8427743 163.177082,25.9729813 163.496094,26.0673828 C163.815106,26.1617843 164.173175,26.2089844 164.570312,26.2089844 C165.104169,26.2089844 165.566404,26.0966808 165.957031,25.8720703 C166.347658,25.6474598 166.671548,25.3382181 166.928711,24.9443359 C167.185874,24.5504538 167.377929,24.0865912 167.504883,23.5527344 C167.631837,23.0188775 167.695312,22.4427114 167.695312,21.8242188 L167.695312,21.6191406 Z M173.964844,21.6777344 L172.626953,22.9667969 L172.626953,27 L171.455078,27 L171.455078,12 L172.626953,12 L172.626953,21.5996094 L173.730469,20.4082031 L177.773438,16.4335938 L179.248047,16.4335938 L174.765625,20.8867188 L179.638672,27 L178.242188,27 L173.964844,21.6777344 Z" id="Android-apk" sketch:type="MSShapeGroup"></path>
                <path d="M80.06,45.3 C79.6733314,44.8066642 79.2966685,44.3466688 78.93,43.92 C78.5633315,43.4933312 78.1866686,43.0866686 77.8,42.7 C77.4133314,42.3133314 77.0033355,41.9366685 76.57,41.57 C76.1366645,41.2033315 75.6666692,40.8400018 75.16,40.48 L76.48,39.24 C77.14667,39.7600026 77.7233309,40.2233313 78.21,40.63 C78.6966691,41.0366687 79.139998,41.4166649 79.54,41.77 C79.940002,42.1233351 80.3099983,42.4699983 80.65,42.81 C80.9900017,43.1500017 81.3399982,43.5133314 81.7,43.9 L80.06,45.3 Z M74.3,47.76 C74.3,48.0666682 74.3033333,48.3399988 74.31,48.58 C74.3166667,48.8200012 74.3233333,49.0599988 74.33,49.3 C74.3366667,49.5400012 74.3499999,49.7899987 74.37,50.05 C74.3900001,50.3100013 74.4199998,50.606665 74.46,50.94 L72.36,50.94 C72.3866668,50.6199984 72.4066666,50.3300013 72.42,50.07 C72.4333334,49.8099987 72.4466666,49.5600012 72.46,49.32 C72.4733334,49.0799988 72.48,48.8366679 72.48,48.59 L72.48,47.76 L72.48,36.24 C71.6933294,36.24 70.9700033,36.2466666 70.31,36.26 C69.6499967,36.2733334 69.0333362,36.2866666 68.46,36.3 C67.8866638,36.3133334 67.3533358,36.3333332 66.86,36.36 C66.3666642,36.3866668 65.8933356,36.4133332 65.44,36.44 L65.44,34.48 C65.973336,34.5200002 66.5333304,34.5499999 67.12,34.57 C67.7066696,34.5900001 68.3466632,34.6099999 69.04,34.63 C69.7333368,34.6500001 70.4866626,34.6633333 71.3,34.67 C72.1133374,34.6766667 73.0133284,34.68 74,34.68 C74.9733382,34.68 75.8699959,34.6766667 76.69,34.67 C77.5100041,34.6633333 78.2666632,34.6500001 78.96,34.63 C79.6533368,34.6099999 80.2966637,34.5900001 80.89,34.57 C81.4833363,34.5499999 82.0399974,34.5200002 82.56,34.48 L82.56,36.44 C82.0533308,36.3999998 81.5133362,36.3700001 80.94,36.35 C80.3666638,36.3299999 79.7433367,36.3100001 79.07,36.29 C78.3966633,36.2699999 77.6666706,36.2566667 76.88,36.25 C76.0933294,36.2433333 75.233338,36.24 74.3,36.24 L74.3,47.76 Z M100.16,36.62 C99.9866658,36.2333314 99.7766679,35.8666684 99.53,35.52 C99.2833321,35.1733316 99.0066682,34.833335 98.7,34.5 L99.98,33.72 C100.193334,34.0266682 100.446665,34.3699981 100.74,34.75 C101.033335,35.1300019 101.313332,35.4733318 101.58,35.78 L100.16,36.62 Z M91.72,44.16 C92.1333354,44.1466666 92.4899985,44.1300001 92.79,44.11 C93.0900015,44.0899999 93.3499989,44.0733334 93.57,44.06 C93.7900011,44.0466666 93.9799992,44.0333334 94.14,44.02 C94.3000008,44.0066666 94.4533326,43.9866668 94.6,43.96 L94.64,45.2 L94.17,45.2 C94.0033325,45.2 93.8066678,45.2033333 93.58,45.21 C93.3533322,45.2166667 93.0900015,45.2266666 92.79,45.24 C92.4899985,45.2533334 92.1333354,45.2666666 91.72,45.28 L91.72,46.84 C92.0400016,46.7999998 92.3599984,46.7566669 92.68,46.71 C93.0000016,46.6633331 93.2999986,46.6166669 93.58,46.57 C93.8600014,46.5233331 94.1099989,46.4766669 94.33,46.43 C94.5500011,46.3833331 94.726666,46.3466668 94.86,46.32 C94.7666662,46.586668 94.6933336,46.8399988 94.64,47.08 C94.5866664,47.3200012 94.56,47.5533322 94.56,47.78 C94.3066654,47.7933334 93.9500023,47.8266664 93.49,47.88 C93.0299977,47.9333336 92.4400036,48.0133328 91.72,48.12 C91.72,48.5733356 91.7266666,49.0433309 91.74,49.53 C91.7533334,50.0166691 91.7733332,50.4866644 91.8,50.94 L90.18,50.94 C90.2200002,50.5266646 90.2499999,50.1000022 90.27,49.66 C90.2900001,49.2199978 90.3066666,48.7733356 90.32,48.32 C88.2133228,48.6666684 86.7733372,48.9466656 86,49.16 C85.9599998,48.8799986 85.8966671,48.5933348 85.81,48.3 C85.7233329,48.0066652 85.613334,47.7000016 85.48,47.38 C86.2266704,47.3666666 86.9699963,47.3300003 87.71,47.27 C88.4500037,47.2099997 89.319995,47.1266672 90.32,47.02 L90.32,45.34 C89.2133278,45.406667 88.3700029,45.4666664 87.79,45.52 C87.2099971,45.5733336 86.7733348,45.633333 86.48,45.7 C86.3999996,45.1933308 86.193335,44.7333354 85.86,44.32 C86.0733344,44.2399996 86.2733324,44.1433339 86.46,44.03 C86.6466676,43.9166661 86.8299991,43.7733342 87.01,43.6 C87.1900009,43.4266658 87.3766657,43.2100013 87.57,42.95 C87.7633343,42.6899987 87.9799988,42.3666686 88.22,41.98 C87.7666644,41.9933334 87.3466686,42.0066666 86.96,42.02 C86.5733314,42.0333334 86.2533346,42.0533332 86,42.08 L86,40.58 C86.333335,40.6066668 86.7599974,40.6299999 87.28,40.65 C87.8000026,40.6700001 88.359997,40.6866666 88.96,40.7 C89.1866678,40.2866646 89.3633327,39.9400014 89.49,39.66 C89.6166673,39.3799986 89.713333,39.1466676 89.78,38.96 C90.0866682,39.093334 90.3799986,39.2066662 90.66,39.3 C90.9400014,39.3933338 91.179999,39.473333 91.38,39.54 C91.513334,39.5666668 91.5833333,39.6066664 91.59,39.66 C91.5966667,39.7133336 91.5400006,39.7666664 91.42,39.82 C91.2733326,39.8733336 91.1366673,39.966666 91.01,40.1 C90.8833327,40.233334 90.720001,40.4399986 90.52,40.72 C90.9333354,40.72 91.3533312,40.7166667 91.78,40.71 C92.2066688,40.7033333 92.6166647,40.6933334 93.01,40.68 C93.4033353,40.6666666 93.7633317,40.6533334 94.09,40.64 C94.4166683,40.6266666 94.6866656,40.6066668 94.9,40.58 L94.9,42.08 C94.6466654,42.0666666 94.3266686,42.0500001 93.94,42.03 C93.5533314,42.0099999 93.1300023,41.9933334 92.67,41.98 C92.2099977,41.9666666 91.7233359,41.9566667 91.21,41.95 C90.6966641,41.9433333 90.1800026,41.94 89.66,41.94 L87.96,44.34 L90.32,44.24 C90.32,43.6933306 90.3133334,43.3000012 90.3,43.06 C90.2866666,42.8199988 90.2666668,42.6266674 90.24,42.48 C90.4800012,42.5333336 90.7266654,42.5699999 90.98,42.59 C91.2333346,42.6100001 91.493332,42.62 91.76,42.62 C91.9066674,42.62 91.9899999,42.6433331 92.01,42.69 C92.0300001,42.7366669 91.9866672,42.8333326 91.88,42.98 C91.813333,43.0600004 91.7700001,43.1833325 91.75,43.35 C91.7299999,43.5166675 91.72,43.7866648 91.72,44.16 Z M90,36.16 C89.3199966,36.1733334 88.6666698,36.1899999 88.04,36.21 C87.4133302,36.2300001 86.9133352,36.2533332 86.54,36.28 L86.54,34.82 C86.9266686,34.8466668 87.4299969,34.8699999 88.05,34.89 C88.6700031,34.9100001 89.3199966,34.9266666 90,34.94 C90,34.4199974 89.9933334,34.0333346 89.98,33.78 C89.9666666,33.5266654 89.9466668,33.300001 89.92,33.1 C90.2133348,33.1400002 90.4899987,33.1699999 90.75,33.19 C91.0100013,33.2100001 91.3133316,33.22 91.66,33.22 C91.993335,33.22 92.0200014,33.3266656 91.74,33.54 C91.5666658,33.673334 91.48,33.839999 91.48,34.04 L91.48,34.94 C92.1600034,34.9266666 92.8066636,34.9100001 93.42,34.89 C94.0333364,34.8699999 94.5133316,34.8466668 94.86,34.82 L94.86,36.28 C94.5133316,36.2533332 94.0333364,36.2300001 93.42,36.21 C92.8066636,36.1899999 92.1600034,36.1733334 91.48,36.16 L91.48,37.62 L95.98,37.62 C95.9399998,36.886663 95.9100001,36.2733358 95.89,35.78 C95.8699999,35.2866642 95.8566667,34.8666684 95.85,34.52 C95.8433333,34.1733316 95.84,33.8733346 95.84,33.62 L95.84,32.86 C96.1466682,32.926667 96.4633317,32.9766665 96.79,33.01 C97.1166683,33.0433335 97.3933322,33.0666666 97.62,33.08 C97.8466678,33.0933334 97.9733332,33.1266664 98,33.18 C98.0266668,33.2333336 97.9466676,33.3533324 97.76,33.54 C97.693333,33.606667 97.6400002,33.7099993 97.6,33.85 C97.5599998,33.9900007 97.5300001,34.2066652 97.51,34.5 C97.4899999,34.7933348 97.48,35.1899975 97.48,35.69 C97.48,36.1900025 97.4866666,36.8333294 97.5,37.62 C98.5400052,37.6066666 99.5299953,37.5833335 100.47,37.55 C101.410005,37.5166665 102.179997,37.4800002 102.78,37.44 L102.78,39.06 C102.179997,39.0199998 101.420005,38.9833335 100.5,38.95 C99.5799954,38.9166665 98.5933386,38.8933334 97.54,38.88 C97.5800002,40.080006 97.666666,41.1199956 97.8,42 C97.933334,42.8800044 98.1266654,43.6999962 98.38,44.46 C98.6600014,43.79333 98.899999,43.0733372 99.1,42.3 C99.300001,41.5266628 99.4399996,40.7533372 99.52,39.98 C99.653334,40.0333336 99.8066658,40.0899997 99.98,40.15 C100.153334,40.2100003 100.326666,40.2666664 100.5,40.32 C100.673334,40.3733336 100.833333,40.4166665 100.98,40.45 C101.126667,40.4833335 101.24,40.5066666 101.32,40.52 C101.653335,40.5600002 101.686668,40.7199986 101.42,41 C101.273333,41.1600008 101.123334,41.3799986 100.97,41.66 C100.816666,41.9400014 100.680001,42.2399984 100.56,42.56 C100.333332,43.160003 100.093335,43.7466638 99.84,44.32 C99.5866654,44.8933362 99.3133348,45.4399974 99.02,45.96 C99.4066686,46.760004 99.7366653,47.359998 100.01,47.76 C100.283335,48.160002 100.513332,48.3766665 100.7,48.41 C100.886668,48.4433335 101.036666,48.3133348 101.15,48.02 C101.263334,47.7266652 101.353333,47.2866696 101.42,46.7 C101.713335,47.0066682 101.959999,47.2366659 102.16,47.39 C102.360001,47.5433341 102.586665,47.6733328 102.84,47.78 C102.613332,48.5400038 102.413334,49.1333312 102.24,49.56 C102.066666,49.9866688 101.890001,50.2866658 101.71,50.46 C101.529999,50.6333342 101.336668,50.6933336 101.13,50.64 C100.923332,50.5866664 100.680001,50.460001 100.4,50.26 C99.666663,49.7666642 98.9066706,48.8133404 98.12,47.4 C97.6799978,48.0533366 97.1733362,48.6899969 96.6,49.31 C96.0266638,49.9300031 95.4200032,50.4799976 94.78,50.96 C94.5933324,50.7733324 94.3866678,50.6033341 94.16,50.45 C93.9333322,50.2966659 93.6266686,50.1333342 93.24,49.96 C94.0800042,49.493331 94.8733296,48.9100035 95.62,48.21 C96.3666704,47.5099965 96.9866642,46.8000036 97.48,46.08 C97.0933314,45.1599954 96.7766679,44.0933394 96.53,42.88 C96.2833321,41.6666606 96.1200004,40.3333406 96.04,38.88 L91.06,38.88 C89.8999942,38.88 88.7933386,38.8966665 87.74,38.93 C86.6866614,38.9633335 85.8200034,39.0066664 85.14,39.06 L85.14,37.44 C85.7133362,37.4666668 86.4266624,37.4966665 87.28,37.53 C88.1333376,37.5633335 89.0399952,37.5933332 90,37.62 L90,36.16 Z" id="下载" sketch:type="MSShapeGroup"></path>
            </g>
        </g>
    </g>
</svg>