<?xml version="1.0" encoding="UTF-8" standalone="no"?>
<svg width="200px" height="60px" viewBox="0 0 200 60" version="1.1" xmlns="http://www.w3.org/2000/svg" xmlns:xlink="http://www.w3.org/1999/xlink" xmlns:sketch="http://www.bohemiancoding.com/sketch/ns">
    <!-- Generator: Sketch 3.0.4 (8053) - http://www.bohemiancoding.com/sketch -->
    <title>btn_ios</title>
    <desc>Created with Sketch.</desc>
    <defs></defs>
    <g id="Simple" stroke="none" stroke-width="1" fill="none" fill-rule="evenodd" sketch:type="MSPage">
        <g id="Download-Buttons" sketch:type="MSArtboardGroup" transform="translate(-50.000000, -50.000000)">
            <g id="btn_ios" sketch:type="MSLayerGroup" transform="translate(50.000000, 50.000000)">
                <g id="Group" sketch:type="MSShapeGroup">
                    <path d="M192.884444,60 L7.00592593,60 C3.1437037,60 0,56.808 0,52.9005 L0,7.089 C0,3.18 3.1437037,0 7.00592593,0 L192.884444,0 C196.745185,0 200,3.18 200,7.089 L200,52.9005 C200,56.808 196.745185,60 192.884444,60 L192.884444,60 L192.884444,60 Z" id="Shape" fill="#000000"></path>
                    <g transform="translate(19.259259, 8.850000)" id="Shape" fill="#FFFFFF">
                        <path d="M25.3748148,20.3314 C25.3318519,15.577475 29.2844444,13.264675 29.4651852,13.157 C27.2266667,9.907575 23.757037,9.4636 22.5377778,9.4282 C19.6237037,9.122875 16.797037,11.164275 15.3125926,11.164275 C13.7985185,11.164275 11.5125926,9.4577 9.04888889,9.50785 C5.87851852,9.556525 2.91259259,11.38405 1.28592593,14.22195 C-2.07111111,20.008375 0.432592593,28.51175 3.64888889,33.188975 C5.25777778,35.47965 7.13777778,38.0373 9.59851852,37.947325 C12.0059259,37.8485 12.9051852,36.419225 15.8103704,36.419225 C18.6888889,36.419225 19.5333333,37.947325 22.042963,37.8898 C24.6266667,37.8485 26.2533333,35.5888 27.8059259,33.277475 C29.6651852,30.651975 30.4118519,28.0663 30.4414815,27.93355 C30.3807407,27.9129 25.4237037,26.029325 25.3748148,20.3314 L25.3748148,20.3314 Z"></path>
                        <path d="M20.6340741,6.35135 C21.9288889,4.739175 22.8148148,2.54585 22.5688889,0.320075 C20.6948148,0.402675 18.3511111,1.6107 17.0014815,3.187475 C15.8074074,4.576925 14.7407407,6.854325 15.0162963,8.996025 C17.1214815,9.152375 19.282963,7.93845 20.6340741,6.35135 L20.6340741,6.35135 Z"></path>
                    </g>
                    <g transform="translate(65.185185, 7.375000)" id="Shape" fill="#FFFFFF">
                        <path d="M14.8237037,17.74425 L11.8518519,17.74425 L10.2222222,12.648125 L4.56148148,12.648125 L3.01037037,17.74425 L0.114074074,17.74425 L5.72444444,0.396775 L9.18814815,0.396775 L14.8237037,17.74425 L14.8237037,17.74425 Z M9.73037037,10.512325 L8.2562963,5.9826 C8.10222222,5.51945 7.80888889,4.429425 7.37777778,2.714 L7.32592593,2.714 C7.15259259,3.4515 6.87703704,4.541525 6.49777778,5.9826 L5.05037037,10.512325 L9.73037037,10.512325 L9.73037037,10.512325 Z"></path>
                        <path d="M29.2474074,11.335375 C29.2474074,13.4638 28.6711111,15.1453 27.517037,16.379875 C26.4814815,17.47875 25.2,18.02745 23.6622222,18.02745 C22.0103704,18.02745 20.8207407,17.435975 20.0977778,16.25155 L20.0459259,16.25155 L20.0459259,22.840375 L17.2533333,22.840375 L17.2533333,9.352975 C17.2533333,8.013675 17.2192593,6.641925 17.1496296,5.234775 L19.6059259,5.234775 L19.7614815,7.217175 L19.8118519,7.217175 C20.7437037,5.724475 22.1555556,4.97665 24.0503704,4.97665 C25.5348148,4.97665 26.7703704,5.56075 27.762963,6.727475 C28.7525926,7.895675 29.2474074,9.43115 29.2474074,11.335375 L29.2474074,11.335375 Z M26.4059259,11.438625 C26.4059259,10.220275 26.1274074,9.217275 25.5777778,8.426675 C24.9733333,7.603625 24.162963,7.1921 23.1466667,7.1921 C22.4577778,7.1921 21.8325926,7.41925 21.2711111,7.87355 C20.7096296,8.32785 20.3451852,8.92375 20.1718519,9.662725 C20.0844444,10.004925 20.0444444,10.2896 20.0444444,10.512325 L20.0444444,12.597975 C20.0444444,13.50805 20.322963,14.27505 20.882963,14.901925 C21.4444444,15.5288 22.1703704,15.8415 23.0681481,15.8415 C24.1185185,15.8415 24.9377778,15.438825 25.5244444,14.632 C26.1111111,13.8237 26.4059259,12.760225 26.4059259,11.438625 L26.4059259,11.438625 Z"></path>
                        <path d="M43.6992593,11.335375 C43.6992593,13.4638 43.1214815,15.1453 41.9674074,16.379875 C40.9333333,17.47875 39.6503704,18.02745 38.1140741,18.02745 C36.4607407,18.02745 35.2711111,17.435975 34.5481481,16.25155 L34.4962963,16.25155 L34.4962963,22.840375 L31.7037037,22.840375 L31.7037037,9.352975 C31.7037037,8.013675 31.6696296,6.641925 31.6014815,5.234775 L34.0562963,5.234775 L34.2103704,7.217175 L34.2622222,7.217175 C35.1925926,5.724475 36.6059259,4.97665 38.5007407,4.97665 C39.9837037,4.97665 41.2192593,5.56075 42.2118519,6.727475 C43.202963,7.895675 43.6992593,9.43115 43.6992593,11.335375 L43.6992593,11.335375 Z M40.8562963,11.438625 C40.8562963,10.220275 40.5792593,9.217275 40.0281481,8.426675 C39.4251852,7.603625 38.6148148,7.1921 37.597037,7.1921 C36.9081481,7.1921 36.282963,7.41925 35.722963,7.87355 C35.1614815,8.32785 34.7955556,8.92375 34.6237037,9.662725 C34.5362963,10.004925 34.4948148,10.2896 34.4948148,10.512325 L34.4948148,12.597975 C34.4948148,13.50805 34.7733333,14.27505 35.3348148,14.901925 C35.8948148,15.5288 36.6222222,15.8415 37.5185185,15.8415 C38.5703704,15.8415 39.3896296,15.438825 39.9748148,14.632 C40.56,13.825175 40.8562963,12.760225 40.8562963,11.438625 L40.8562963,11.438625 Z"></path>
                        <path d="M63.3466667,12.8797 C63.3466667,14.3547 62.8296296,15.55535 61.7985185,16.483125 C60.6637037,17.49645 59.0814815,18.0009 57.0533333,18.0009 C55.1777778,18.0009 53.6740741,17.641 52.5377778,16.919725 L53.1837037,14.603975 C54.4074074,15.341475 55.7525926,15.710225 57.2192593,15.710225 C58.2711111,15.710225 59.0903704,15.474225 59.6755556,15.00075 C60.2622222,14.52875 60.5555556,13.895975 60.5555556,13.105375 C60.5555556,12.400325 60.3140741,11.80885 59.8325926,11.326525 C59.3496296,10.845675 58.5481481,10.39875 57.4281481,9.98575 C54.3762963,8.851475 52.8518519,7.1921 52.8518519,5.0091 C52.8518519,3.582775 53.3851852,2.414575 54.4548148,1.503025 C55.522963,0.591475 56.9451852,0.137175 58.72,0.137175 C60.3051852,0.137175 61.6237037,0.411525 62.6755556,0.960225 L61.9777778,3.225825 C60.9955556,2.694825 59.882963,2.42785 58.642963,2.42785 C57.6607407,2.42785 56.8933333,2.668275 56.3407407,3.149125 C55.877037,3.57835 55.642963,4.101975 55.642963,4.718525 C55.642963,5.4044 55.9111111,5.9708 56.4444444,6.417725 C56.9096296,6.82925 57.7540741,7.276175 58.9777778,7.75555 C60.477037,8.355875 61.5807407,9.05945 62.2859259,9.866275 C62.9925926,10.67605 63.3466667,11.67905 63.3466667,12.8797 L63.3466667,12.8797 Z"></path>
                        <path d="M72.5748148,7.320425 L69.4977778,7.320425 L69.4977778,13.394475 C69.4977778,14.9388 70.0414815,15.7117 71.1274074,15.7117 C71.6281481,15.7117 72.04,15.668925 72.3688889,15.583375 L72.4474074,17.6941 C71.8948148,17.899125 71.1718519,18.002375 70.2755556,18.002375 C69.1718519,18.002375 68.3111111,17.66755 67.6903704,16.999375 C67.0696296,16.329725 66.7585185,15.205775 66.7585185,13.627525 L66.7585185,7.320425 L64.9244444,7.320425 L64.9244444,5.23625 L66.7585185,5.23625 L66.7585185,2.945575 L69.4992593,2.122525 L69.4992593,5.23625 L72.5762963,5.23625 L72.5762963,7.320425 L72.5748148,7.320425 Z"></path>
                        <path d="M86.4562963,11.387 C86.4562963,13.308925 85.9037037,14.887175 84.8014815,16.123225 C83.6474074,17.3932 82.1140741,18.02745 80.2014815,18.02745 C78.357037,18.02745 76.8874074,17.418275 75.7925926,16.199925 C74.6977778,14.981575 74.1511111,13.4461 74.1511111,11.592025 C74.1511111,9.653875 74.7155556,8.0653 75.8459259,6.82925 C76.9748148,5.594675 78.4948148,4.97665 80.4074074,4.97665 C82.2518519,4.97665 83.7333333,5.585825 84.8548148,6.804175 C85.9214815,7.990075 86.4562963,9.5167 86.4562963,11.387 L86.4562963,11.387 Z M83.56,11.476975 C83.56,10.323525 83.3111111,9.3338 82.8103704,8.509275 C82.2237037,7.5107 81.3881481,7.01215 80.3037037,7.01215 C79.1822222,7.01215 78.3303704,7.5107 77.7437037,8.509275 C77.242963,9.335275 76.9940741,10.341225 76.9940741,11.5286 C76.9940741,12.68205 77.242963,13.671775 77.7437037,14.497775 C78.3466667,15.49635 79.1925926,15.9949 80.277037,15.9949 C81.3466667,15.9949 82.1807407,15.4875 82.7837037,14.471225 C83.3022222,13.629 83.56,12.630425 83.56,11.476975 L83.56,11.476975 Z"></path>
                        <path d="M95.5288889,7.6818 C95.2533333,7.630175 94.96,7.6051 94.6503704,7.6051 C93.6681481,7.6051 92.9081481,7.97385 92.3748148,8.71135 C91.9111111,9.3633 91.677037,10.187825 91.677037,11.181975 L91.677037,17.745725 L88.8844444,17.745725 L88.9111111,9.1745 C88.9111111,7.73195 88.877037,6.420675 88.8074074,5.23625 L91.2385185,5.23625 L91.3422222,7.630175 L91.4192593,7.630175 C91.7125926,6.807125 92.1777778,6.146325 92.8148148,5.64925 C93.4355556,5.202325 94.1081481,4.9796 94.8311111,4.9796 C95.0903704,4.9796 95.3214815,4.9973 95.5288889,5.031225 L95.5288889,7.6818 L95.5288889,7.6818 Z"></path>
                        <path d="M108.014815,10.898775 C108.014815,11.39585 107.980741,11.8177 107.912593,12.1599 L99.5377778,12.1599 C99.5703704,13.394475 99.9762963,14.33995 100.751111,14.990425 C101.459259,15.574525 102.371852,15.8651 103.491852,15.8651 C104.733333,15.8651 105.862222,15.668925 106.878519,15.273625 L107.318519,17.2044 C106.128889,17.719175 104.724444,17.975825 103.103704,17.975825 C101.157037,17.975825 99.6266667,17.405 98.5155556,16.26335 C97.402963,15.123175 96.8474074,13.59065 96.8474074,11.668725 C96.8474074,9.7822 97.3659259,8.211325 98.3985185,6.95905 C99.4844444,5.621225 100.94963,4.951575 102.794074,4.951575 C104.604444,4.951575 105.973333,5.621225 106.903704,6.95905 C107.644444,8.024 108.014815,9.33675 108.014815,10.898775 L108.014815,10.898775 Z M105.352593,10.1775 C105.37037,9.35445 105.18963,8.642025 104.81037,8.0417 C104.327407,7.270275 103.586667,6.883825 102.586667,6.883825 C101.674074,6.883825 100.931852,7.261425 100.362963,8.016625 C99.8992593,8.618425 99.6222222,9.338225 99.5362963,10.178975 L105.352593,10.178975 L105.352593,10.1775 Z"></path>
                    </g>
                    <g transform="translate(65.185185, 32.450000)" id="Shape" fill="#FFFFFF">
                        <path d="M19.002963,2.9264 L9.78666667,2.9264 L9.78666667,18.98915 L7.63703704,18.98915 L7.63703704,2.9264 L0.0340740741,2.9264 L0.0340740741,0.92925 L19.002963,0.92925 L19.002963,2.9264 L19.002963,2.9264 Z M18.5881481,11.76165 L17.0237037,13.31925 C14.7896296,11.21 12.4859259,9.20695 10.1051852,7.308625 L11.597037,5.89705 C14.0088889,7.777675 16.3392593,9.733525 18.5881481,11.76165 L18.5881481,11.76165 Z"></path>
                        <path d="M32.4725926,9.5698 L26.24,9.5698 C25.8162963,10.31615 25.4666667,10.9091 25.1881481,11.347175 L26.9733333,11.347175 L26.9733333,10.05655 L28.9051852,10.05655 L28.9051852,11.347175 L32.0088889,11.347175 L32.0088889,13.049325 L28.9051852,13.049325 L28.9051852,14.4373 L32.2296296,14.14525 L31.8874074,15.848875 L28.9051852,16.117325 L28.9051852,18.8918 L26.9733333,18.8918 L26.9733333,16.261875 L21.7911111,16.7973 L21.5718519,14.898975 C23.56,14.8031 25.3614815,14.6969 26.9733333,14.583325 L26.9733333,13.049325 L25.5066667,13.049325 C24.317037,13.049325 23.3881481,13.155525 22.72,13.36645 L22.1822222,11.589075 C22.72,11.52565 23.0948148,11.335375 23.3066667,11.01825 C23.52,10.701125 23.8118519,10.2188 24.1881481,9.5698 L21.9140741,9.5698 L21.9140741,7.86765 L25.0681481,7.86765 C25.2637037,7.462025 25.4340741,7.0387 25.5822222,6.6021 L27.4148148,7.13605 L27.0725926,7.86765 L32.4740741,7.86765 L32.4740741,9.5698 L32.4725926,9.5698 Z M41.1511111,14.6084 C40.8888889,16.52295 40.6133333,17.713275 40.3185185,18.18675 C40.0251852,18.6558 39.5807407,18.893275 38.9866667,18.893275 C38.3925926,18.893275 37.757037,18.592375 37.08,17.99205 C36.4044444,17.3932 35.8207407,16.710275 35.3318519,15.9477 C34.3377778,16.937425 33.0592593,17.96845 31.4948148,19.0393 L30.002963,17.57905 C31.7792593,16.491975 33.2444444,15.32525 34.402963,14.07445 C33.997037,12.8738 33.7022222,11.394375 33.522963,9.63175 C33.3437037,7.872075 33.2533333,6.821875 33.2533333,6.479675 L21.7407407,6.479675 L21.7407407,4.75245 L26.6785185,4.75245 L26.6785185,3.36595 L22.9392593,3.36595 L22.9392593,1.63725 L26.6785185,1.63725 L26.6785185,-0.33335 L28.6340741,-0.33335 L28.6340741,1.63725 L32.1540741,1.63725 L32.1540741,3.36595 L28.6340741,3.36595 L28.6340741,4.75245 L33.1792593,4.75245 L33.082963,-0.358425 L35.0148148,-0.358425 C35.0148148,1.70215 35.0459259,3.405775 35.1111111,4.75245 L40.8074074,4.75245 L40.8074074,6.479675 L35.1851852,6.479675 L35.1851852,6.724525 C35.1851852,7.049025 35.2414815,7.848475 35.3555556,9.1214 C35.4696296,10.394325 35.6251852,11.446 35.8192593,12.273475 C36.6518519,11.040375 37.3422222,9.5639 37.8962963,7.842575 L39.6814815,8.5255 C38.8177778,10.974 37.8148148,12.9387 36.6755556,14.4137 C36.9362963,14.91815 37.3066667,15.4167 37.7866667,15.9123 C38.2666667,16.4079 38.5807407,16.654225 38.7288889,16.654225 C38.8755556,16.654225 39.0014815,16.42265 39.1081481,15.960975 C39.2133333,15.497825 39.2903704,14.8857 39.3392593,14.123125 L41.1511111,14.6084 L41.1511111,14.6084 Z M40.3688889,3.1683 L38.8281481,4.38665 C37.9481481,3.314325 37.0103704,2.30985 36.0177778,1.367325 L37.4607407,0.17405 C38.6162963,1.296525 39.5866667,2.293625 40.3688889,3.1683 L40.3688889,3.1683 Z"></path>
                    </g>
                </g>
            </g>
        </g>
    </g>
</svg>